<svg xmlns="http://www.w3.org/2000/svg" viewBox="-72 0 418 418" role="img" aria-label="Unde Facem Sport">
<defs>
<linearGradient id="green" x1="0" y1="0" x2="1" y2="1"><stop offset="0" stop-color="#08b66c"/><stop offset="1" stop-color="#00a85b"/></linearGradient>
</defs>
<path d="M 151 12 L 123 12 L 102 16 L 74 28 L 58 39 L 40 57 L 29 73 L 17 101 L 12 129 L 13 158 L 17 180 L 38 239 L 85 325 L 91 330 L 95 342 L 137 405 L 175 348 L 183 330 L 189 325 L 235 241 L 255 188 L 262 144 L 261 120 L 256 98 L 245 73 L 233 56 L 217 40 L 198 27 L 172 16 Z" fill="url(#green)" fill-rule="evenodd"/>
<path d="M 88 277 L 88 327 L 92 331 L 93 334 L 94 334 L 94 285 L 95 284 L 180 284 L 181 285 L 181 336 L 188 327 L 188 277 L 162 277 L 160 275 L 160 272 L 156 265 L 152 261 L 144 257 L 133 257 L 127 259 L 119 266 L 114 277 Z M 122 274 L 124 270 L 131 264 L 142 263 L 145 264 L 151 269 L 154 276 L 153 277 L 123 277 Z" fill="#fff" fill-rule="evenodd"/>
<path d="M 18 172 L 18 179 L 77 179 L 79 181 L 79 187 L 82 198 L 91 214 L 100 223 L 109 229 L 121 234 L 131 236 L 146 236 L 155 234 L 170 227 L 179 220 L 186 212 L 193 199 L 198 179 L 258 179 L 258 172 L 198 172 L 196 162 L 189 145 L 185 139 L 174 128 L 157 119 L 141 116 L 134 116 L 119 119 L 108 124 L 97 132 L 86 146 L 80 160 L 79 170 L 77 172 Z M 129 124 L 151 125 L 157 127 L 169 134 L 182 148 L 187 158 L 189 165 L 189 171 L 188 172 L 165 172 L 165 179 L 188 179 L 189 180 L 188 191 L 184 201 L 177 211 L 171 217 L 155 226 L 148 228 L 141 228 L 140 229 L 128 228 L 116 224 L 109 220 L 98 210 L 93 203 L 89 195 L 86 184 L 87 179 L 110 179 L 110 172 L 87 172 L 86 171 L 86 167 L 89 157 L 95 146 L 103 137 L 111 131 L 119 127 Z" fill="#fff" fill-rule="evenodd"/>
<path d="M 188 24 L 181 21 L 181 61 L 180 62 L 95 62 L 94 61 L 94 22 L 89 23 L 88 24 L 88 69 L 114 69 L 118 79 L 126 87 L 135 90 L 145 89 L 151 86 L 156 81 L 160 74 L 160 71 L 162 69 L 188 69 Z M 122 70 L 123 69 L 153 69 L 154 72 L 152 76 L 147 81 L 137 84 L 129 81 L 124 76 Z" fill="#fff" fill-rule="evenodd"/>
<path d="M 133 149 L 126 151 L 121 154 L 114 162 L 111 170 L 111 180 L 115 190 L 122 197 L 131 201 L 143 201 L 152 197 L 159 190 L 163 179 L 163 170 L 159 161 L 154 155 L 145 150 Z" fill="#ff7a1a" fill-rule="evenodd"/>
</svg>
