<svg xmlns="http://www.w3.org/2000/svg" viewBox="0 0 992 418" role="img" aria-label="Unde Facem Sport.ro">
<defs>
<linearGradient id="green" x1="0" y1="0" x2="1" y2="1"><stop offset="0" stop-color="#08b66c"/><stop offset="1" stop-color="#00a85b"/></linearGradient>
<linearGradient id="navy" x1="0" y1="0" x2="0" y2="1"><stop offset="0" stop-color="#172536"/><stop offset="1" stop-color="#0c1827"/></linearGradient>
</defs>
<path d="M 151 12 L 123 12 L 102 16 L 74 28 L 58 39 L 40 57 L 29 73 L 17 101 L 12 129 L 13 158 L 17 180 L 38 239 L 85 325 L 91 330 L 95 342 L 137 405 L 175 348 L 183 330 L 189 325 L 235 241 L 255 188 L 262 144 L 261 120 L 256 98 L 245 73 L 233 56 L 217 40 L 198 27 L 172 16 Z" fill="url(#green)" fill-rule="evenodd"/>
<path d="M 88 277 L 88 327 L 92 331 L 93 334 L 94 334 L 94 285 L 95 284 L 180 284 L 181 285 L 181 336 L 188 327 L 188 277 L 162 277 L 160 275 L 160 272 L 156 265 L 152 261 L 144 257 L 133 257 L 127 259 L 119 266 L 114 277 Z M 122 274 L 124 270 L 131 264 L 142 263 L 145 264 L 151 269 L 154 276 L 153 277 L 123 277 Z" fill="#fff" fill-rule="evenodd"/>
<path d="M 18 172 L 18 179 L 77 179 L 79 181 L 79 187 L 82 198 L 91 214 L 100 223 L 109 229 L 121 234 L 131 236 L 146 236 L 155 234 L 170 227 L 179 220 L 186 212 L 193 199 L 198 179 L 258 179 L 258 172 L 198 172 L 196 162 L 189 145 L 185 139 L 174 128 L 157 119 L 141 116 L 134 116 L 119 119 L 108 124 L 97 132 L 86 146 L 80 160 L 79 170 L 77 172 Z M 129 124 L 151 125 L 157 127 L 169 134 L 182 148 L 187 158 L 189 165 L 189 171 L 188 172 L 165 172 L 165 179 L 188 179 L 189 180 L 188 191 L 184 201 L 177 211 L 171 217 L 155 226 L 148 228 L 141 228 L 140 229 L 128 228 L 116 224 L 109 220 L 98 210 L 93 203 L 89 195 L 86 184 L 87 179 L 110 179 L 110 172 L 87 172 L 86 171 L 86 167 L 89 157 L 95 146 L 103 137 L 111 131 L 119 127 Z" fill="#fff" fill-rule="evenodd"/>
<path d="M 188 24 L 181 21 L 181 61 L 180 62 L 95 62 L 94 61 L 94 22 L 89 23 L 88 24 L 88 69 L 114 69 L 118 79 L 126 87 L 135 90 L 145 89 L 151 86 L 156 81 L 160 74 L 160 71 L 162 69 L 188 69 Z M 122 70 L 123 69 L 153 69 L 154 72 L 152 76 L 147 81 L 137 84 L 129 81 L 124 76 Z" fill="#fff" fill-rule="evenodd"/>
<path d="M 133 149 L 126 151 L 121 154 L 114 162 L 111 170 L 111 180 L 115 190 L 122 197 L 131 201 L 143 201 L 152 197 L 159 190 L 163 179 L 163 170 L 159 161 L 154 155 L 145 150 Z" fill="#ff7a1a" fill-rule="evenodd"/>
<path d="M 713 336 L 707 362 L 735 362 L 740 336 Z" fill="url(#navy)" fill-rule="evenodd"/>
<path d="M 929 238 L 919 237 L 916 238 L 888 238 L 887 237 L 884 238 L 881 237 L 863 252 L 844 345 L 845 350 L 856 362 L 905 362 L 922 348 L 941 255 L 940 250 Z M 909 261 L 910 269 L 908 274 L 896 337 L 894 339 L 876 339 L 875 332 L 889 264 L 892 261 Z" fill="url(#navy)" fill-rule="evenodd"/>
<path d="M 777 237 L 775 238 L 750 362 L 779 362 L 787 320 L 789 318 L 797 318 L 799 320 L 800 341 L 803 362 L 833 362 L 827 324 L 827 313 L 841 302 L 851 252 L 839 238 L 823 238 L 822 237 L 820 238 L 780 238 Z M 818 261 L 819 270 L 814 291 L 808 296 L 794 296 L 793 291 L 799 262 L 800 261 Z" fill="url(#navy)" fill-rule="evenodd"/>
<path d="M 744 234 L 663 234 L 658 258 L 680 258 L 682 262 L 661 362 L 692 362 L 712 266 L 712 261 L 714 258 L 739 258 Z" fill="url(#navy)" fill-rule="evenodd"/>
<path d="M 569 234 L 543 362 L 574 362 L 581 323 L 583 318 L 593 318 L 594 319 L 598 362 L 629 362 L 623 321 L 623 313 L 638 301 L 648 253 L 648 248 L 636 234 Z M 614 258 L 616 260 L 610 290 L 604 295 L 589 295 L 588 290 L 594 260 L 596 258 Z" fill="url(#navy)" fill-rule="evenodd"/>
<path d="M 538 234 L 486 234 L 468 248 L 448 344 L 448 349 L 460 362 L 464 363 L 465 362 L 513 362 L 530 348 L 550 253 L 550 248 Z M 516 258 L 518 260 L 503 336 L 500 339 L 482 339 L 480 335 L 495 261 L 497 258 Z" fill="url(#navy)" fill-rule="evenodd"/>
<path d="M 443 234 L 376 234 L 351 362 L 355 363 L 381 362 L 387 328 L 390 322 L 425 322 L 444 307 L 453 259 L 455 254 L 455 248 Z M 403 258 L 421 258 L 423 260 L 416 295 L 413 298 L 395 298 L 394 297 L 400 264 Z" fill="url(#navy)" fill-rule="evenodd"/>
<path d="M 348 234 L 295 234 L 278 247 L 269 293 L 276 303 L 313 313 L 315 315 L 315 321 L 312 336 L 310 339 L 291 339 L 290 332 L 292 323 L 263 323 L 258 345 L 258 350 L 268 362 L 272 363 L 282 362 L 285 363 L 298 363 L 299 362 L 321 363 L 339 349 L 349 301 L 341 291 L 305 281 L 302 278 L 305 266 L 305 261 L 308 258 L 326 258 L 327 263 L 325 272 L 354 272 L 359 247 Z" fill="url(#navy)" fill-rule="evenodd"/>
<path d="M 897 113 L 877 213 L 898 213 L 908 166 L 912 167 L 916 204 L 921 204 L 923 202 L 938 171 L 941 167 L 943 167 L 944 172 L 935 213 L 958 213 L 974 132 L 979 113 L 951 113 L 931 150 L 928 149 L 924 113 Z" fill="url(#navy)" fill-rule="evenodd"/>
<path d="M 834 113 L 814 213 L 867 213 L 871 194 L 842 194 L 841 190 L 844 175 L 846 172 L 870 172 L 873 162 L 874 152 L 851 152 L 850 151 L 853 133 L 854 132 L 883 132 L 887 113 Z" fill="url(#navy)" fill-rule="evenodd"/>
<path d="M 812 113 L 773 113 L 759 124 L 744 196 L 745 204 L 753 213 L 793 213 L 806 202 L 810 181 L 788 180 L 786 192 L 784 194 L 770 194 L 769 188 L 779 138 L 782 132 L 796 132 L 797 137 L 795 145 L 818 145 L 821 123 Z" fill="url(#navy)" fill-rule="evenodd"/>
<path d="M 734 113 L 702 113 L 660 213 L 683 213 L 689 197 L 691 195 L 711 195 L 712 196 L 712 214 L 713 213 L 735 213 Z M 712 144 L 713 145 L 713 176 L 712 177 L 699 177 L 698 174 L 709 145 Z" fill="url(#navy)" fill-rule="evenodd"/>
<path d="M 683 113 L 628 113 L 608 213 L 632 213 L 639 176 L 641 173 L 666 173 L 670 155 L 669 154 L 646 154 L 645 147 L 648 133 L 649 132 L 679 132 L 681 118 Z" fill="url(#navy)" fill-rule="evenodd"/>
<path d="M 538 113 L 517 213 L 573 213 L 577 194 L 547 194 L 546 188 L 550 172 L 576 172 L 580 153 L 579 152 L 578 153 L 556 153 L 554 149 L 557 134 L 559 132 L 589 132 L 593 113 Z" fill="url(#navy)" fill-rule="evenodd"/>
<path d="M 461 113 L 441 213 L 492 213 L 507 202 L 523 124 L 513 113 Z M 496 132 L 497 139 L 487 189 L 483 194 L 470 194 L 469 187 L 480 134 L 482 132 Z" fill="url(#navy)" fill-rule="evenodd"/>
<path d="M 382 113 L 362 213 L 384 213 L 393 169 L 395 169 L 397 173 L 406 213 L 411 214 L 428 213 L 449 113 L 426 113 L 425 114 L 425 119 L 417 154 L 415 154 L 413 151 L 404 113 Z" fill="url(#navy)" fill-rule="evenodd"/>
<path d="M 304 113 L 286 202 L 296 213 L 338 213 L 352 201 L 370 113 L 346 113 L 331 189 L 328 194 L 313 194 L 312 193 L 328 113 Z" fill="url(#navy)" fill-rule="evenodd"/>
</svg>